<svg width="23" height="18" viewBox="0 0 23 18" fill="none" xmlns="http://www.w3.org/2000/svg">
<path fill-rule="evenodd" clip-rule="evenodd" d="M20.25 2.11766H2.24997V3.17646H20.25V2.11766ZM2.24997 15.8823V5.29411H20.25V15.8823H2.24997ZM0 0V18H22.5V0H0ZM16.875 7.87499V14.625H19.125V7.87499H16.875ZM13.5 14.625V10.125H15.75V14.625H13.5ZM10.125 13.5V14.625H12.375V13.5H10.125Z" fill="#008B94"/>
<path fill-rule="evenodd" clip-rule="evenodd" d="M6.75027 14.625C8.92488 14.625 10.6877 12.8621 10.6877 10.6875C10.6877 8.51286 8.92488 6.75 6.75027 6.75C4.5756 6.75 2.81274 8.51286 2.81274 10.6875C2.81274 12.8622 4.5756 14.625 6.75027 14.625ZM8.62107 11.9375C8.86828 11.5675 9.00023 11.1325 9.00023 10.6875H6.75027V8.4375C6.30524 8.43745 5.87021 8.5694 5.50019 8.81664C5.13016 9.06388 4.84178 9.41531 4.67153 9.82647C4.54418 10.1338 4.48659 10.4656 4.5029 10.7979C4.51921 11.1302 4.60902 11.4548 4.76585 11.7482C4.92269 12.0416 5.14265 12.2966 5.40988 12.4948C5.67712 12.693 5.98499 12.8294 6.3113 12.8943C6.74776 12.9811 7.20016 12.9365 7.61129 12.7662C8.02242 12.5959 8.37383 12.3075 8.62107 11.9375Z" fill="#008B94"/>
</svg>
