<svg width="100" height="101" viewBox="0 0 100 101" fill="none" xmlns="http://www.w3.org/2000/svg">
<g clip-path="url(#clip0_4637_582)">
<path d="M100.047 50.9551C100.047 78.5895 77.6484 100.986 50.0156 100.986C22.3844 100.986 -0.015625 78.5957 -0.015625 50.9551C-0.015625 23.327 22.3797 0.923828 50.0156 0.923828C77.6406 0.923828 100.047 23.3191 100.047 50.9551Z" fill="#1E75BB"/>
<path d="M23.8107 65.4082C14.9467 46.391 14.5482 25.9238 22.5654 9.00195C8.98106 17.9426 0.00292969 33.3098 0.00292969 50.7895C0.00292969 78.4223 22.3951 100.821 50.0342 100.821C50.5279 100.821 51.0107 100.76 51.4982 100.747C40.0295 91.0957 30.3654 79.4816 23.817 65.4207" fill="#186DA3"/>
<path d="M78.7033 70.7695C78.3814 73.4273 75.7939 73.8164 74.533 75.5352C75.0705 78.5477 72.3814 83.4258 75.4283 83.8805C78.3205 84.3148 78.8564 75.1398 79.3018 71.3648C78.9064 71.3586 79.0299 70.8398 78.7033 70.7664M74.3658 7.06641C72.6893 8.34609 69.7111 6.56797 68.0143 6.30078C66.2674 7.03359 64.7158 7.96953 62.6455 8.38672C62.3111 9.25391 62.7127 10.5414 62.9471 11.6617C64.8377 12.8352 67.433 12.3367 70.0955 12.2586C69.5346 15.257 69.6939 18.0289 67.4143 18.8148C64.6111 19.7789 60.8955 17.1617 57.8861 17.0289C56.5721 17.3102 56.9158 19.2367 55.4939 19.4102C53.1596 17.9711 50.1814 17.1773 48.3486 15.2383C48.9018 14.4602 48.7689 12.393 48.0486 11.9602C42.9814 11.6961 38.5143 14.7664 34.6408 13.7492C34.158 15.457 32.6877 16.1664 31.6627 17.3258C32.1564 22.132 26.7252 23.3367 25.7002 27.157C25.0018 29.7602 26.3861 33.0617 25.1064 36.0961C28.2471 38.8883 28.4189 45.0445 33.1518 45.632C36.3283 46.0258 38.9658 44.3195 42.6799 43.843C44.108 44.968 44.4971 46.3461 47.1533 45.632C48.5283 47.2492 46.5971 51.4195 47.7518 53.082C49.9268 56.2227 51.5611 58.4195 51.0268 62.318C50.8033 63.9477 49.4439 65.4039 49.5377 67.0883C49.6049 68.3711 50.6893 69.4883 51.0268 70.6602C52.1643 74.657 52.5643 79.4414 54.8955 82.8805C55.1174 83.7883 54.3893 83.7555 54.5986 84.6664C56.3111 85.9898 61.6018 85.1242 63.2424 84.0695C66.6064 81.9227 66.008 76.5523 69.1986 74.5352C69.6924 73.0367 68.9518 71.8211 68.908 70.0695C69.9768 68.3555 71.9236 67.5242 73.3736 66.1945C74.6252 61.9242 72.2127 59.1086 72.4846 54.8695C75.9205 49.2711 81.5174 45.8305 83.2049 38.4805C81.3383 38.9667 79.4498 39.364 77.5455 39.6711C75.0111 37.0461 73.0893 33.8008 70.9955 30.7336C71.4814 26.0305 66.8877 23.3742 67.7143 20.3039C68.3268 20.3883 67.9861 21.4164 68.6033 21.4945C69.8752 18.9133 70.7111 24.2555 71.2861 25.3695C71.5143 25.8086 72.4908 26.0383 72.7783 26.5602C73.1643 27.2711 72.8299 28.1727 73.0768 28.943C73.6768 30.8445 75.7205 31.6852 76.0549 33.7117C76.3393 35.4398 75.9189 36.143 76.6549 36.9883C82.2486 34.8414 88.1252 32.9727 90.0627 27.157C88.5174 26.6148 87.6361 25.4117 86.7799 24.1773C86.0643 25.3477 84.9705 26.1352 83.2033 26.2617C82.5361 23.7492 80.8361 22.2789 80.2252 19.7055C82.858 18.5227 83.2221 22.0352 84.9955 22.6852H87.6783C88.3518 24.3117 90.4736 24.4961 92.7815 24.493C88.2408 17.2289 81.9143 11.1914 74.3658 7.06641Z" fill="#00A650"/>
<path d="M38.8126 4.21445C38.2079 4.30039 38.2235 5.0207 37.6173 5.10664C35.7517 5.30039 33.8204 4.25039 32.2501 5.10664C32.436 7.27383 32.0282 8.85039 31.9595 10.7676C34.0423 12.9488 37.2673 12.4645 39.4048 10.4738C39.2313 9.50508 39.6079 9.0832 39.7017 8.38633C41.8298 8.13164 42.111 6.0207 43.2735 4.80977C45.1938 5.13477 45.8501 4.19883 47.1532 3.91602C49.1001 6.44258 52.7251 7.28008 53.7079 10.7676C54.1032 9.53633 53.9063 7.9957 55.197 8.38633C53.1017 7.28477 48.7407 4.41758 51.0267 1.82852C53.9126 3.94727 56.0735 8.14102 58.5407 10.066C58.572 9.99258 58.6454 9.92383 58.7751 9.87383C60.4548 10.9176 57.9642 10.9301 58.1813 12.2566C59.1548 12.1426 59.4876 11.3848 60.2642 11.0645C60.3188 9.81602 58.7985 10.1441 59.0673 8.6832C60.1642 7.78633 62.3829 8.01758 63.5345 7.19258C63.2788 5.72538 63.6153 4.21666 64.4704 2.99727C59.904 1.65052 55.1687 0.962845 50.4079 0.955078C46.3845 0.955078 42.5017 1.48008 38.7563 2.37383C38.8829 2.88164 38.9267 3.47383 38.8188 4.21445" fill="#00A650"/>
</g>
<defs>
<clipPath id="clip0_4637_582">
<rect width="100" height="100" fill="white" transform="translate(0 0.923828)"/>
</clipPath>
</defs>
</svg>
