<svg width="281" height="321" viewBox="0 0 281 321" fill="none" xmlns="http://www.w3.org/2000/svg">
<circle cx="60.5" cy="68.5" r="34.5" fill="#AAF9FF"/>
<circle cx="191.5" cy="12.5" r="12.5" fill="#F1CF4A"/>
<path fill-rule="evenodd" clip-rule="evenodd" d="M192.457 140.56C207.335 171.984 201.325 178.905 236.556 195.795C257.117 205.647 271.733 218.209 273.427 242.509C275.259 268.792 261.301 299.164 237.392 311.443C233.428 313.48 229.219 315.128 224.825 316.491H50.3905C35.7489 309.439 24.986 303.081 15.5088 288.983C1.50993 268.131 1.0888 238.412 20.4829 220.581C40.1504 202.498 63.9073 199.461 82.3317 174.862C91.6095 162.468 98.294 151.8 106.478 138.817C118.34 120.003 130.667 111.309 153.802 113.366C171.437 114.94 184.696 124.903 192.457 140.564V140.56ZM78.9423 163.107C72.2172 173.361 55.8061 190.832 42.1859 188.242C29.1973 185.775 33.0171 163.47 39.6757 154.897C47.0178 145.446 63.5859 139.066 75.1891 139.245C91.868 139.508 84.2933 154.949 78.9423 163.107Z" fill="#008B94"/>
<path fill-rule="evenodd" clip-rule="evenodd" d="M214.225 262.228C201.12 294.417 169.528 317.11 132.629 317.11C83.9884 317.11 44.5537 277.68 44.5537 229.04C44.5537 180.4 83.9884 140.965 132.629 140.965V229.04L214.225 262.228Z" fill="#126469"/>
<path fill-rule="evenodd" clip-rule="evenodd" d="M214.225 262.227C201.12 294.416 169.528 317.109 132.629 317.109C131.718 317.109 130.813 317.092 129.908 317.067C95.0727 310.183 68.8057 279.473 68.8057 242.617C68.8057 205.761 96.4524 173.469 132.629 167.689V229.04L214.225 262.227Z" fill="#AAF9FF"/>
<path fill-rule="evenodd" clip-rule="evenodd" d="M71.3325 307.6C71.3325 244.513 22.6662 248.187 27.1564 219.521C30.4774 198.311 55.3813 195.149 69.1918 212.415C88.4437 236.477 91.6705 278.712 85.8744 308.1C85.6324 309.327 85.1485 311.336 84.4115 313.473H71.7444C71.508 311.148 71.3344 308.931 71.3344 307.6H71.3325Z" fill="#FFC255"/>
<path fill-rule="evenodd" clip-rule="evenodd" d="M64.9952 313.473H73.2738C74.8844 297.622 71.3898 272.997 61.1367 260.344C53.0891 250.407 34.938 240.529 27.6551 256.166C20.0711 272.428 43.4918 276.187 53.296 285.402C59.8327 291.549 64.3525 304.375 64.9952 313.473Z" fill="#4DBBFF"/>
<path fill-rule="evenodd" clip-rule="evenodd" d="M90.3314 244.818C99.8105 237.439 108.636 246.697 106.336 258.797C104.62 267.838 98.4935 275.707 95.8947 285.633C93.3531 295.348 92.1636 303.863 90.638 313.473H84.1696C84.1215 313.038 84.0902 312.594 84.0698 312.142C83.6376 303.026 83.6967 291.959 83.6912 282.744C83.6856 272.633 83.1814 252.672 90.3332 244.82L90.3314 244.818Z" fill="#63C6C4"/>
<path d="M36.6282 210.731C36.3437 210.504 36.2957 210.088 36.5229 209.806C36.7501 209.516 37.1657 209.47 37.4483 209.695C74.9934 239.599 76.5616 271.014 78.1298 302.432C78.3089 306.084 78.4936 309.732 78.7356 313.431C78.7559 313.795 78.4825 314.111 78.1205 314.131C77.753 314.152 77.4408 313.878 77.4205 313.516C77.1785 309.88 76.9938 306.185 76.8091 302.495C75.2613 271.376 73.7097 240.256 36.6263 210.731H36.6282Z" fill="#273451"/>
<path d="M35.165 258.376C34.8492 258.202 34.7291 257.801 34.9064 257.482C35.0801 257.16 35.4809 257.046 35.8004 257.22C48.7945 264.362 56.5632 273.077 61.3305 282.692C66.0885 292.282 67.8506 302.738 68.8572 313.416C68.8942 313.78 68.6263 314.096 68.2625 314.133C67.8986 314.164 67.5791 313.897 67.5458 313.533C66.5502 302.997 64.8196 292.687 60.152 283.276C55.4938 273.893 47.895 265.376 35.1632 258.378L35.165 258.376Z" fill="#273451"/>
<path d="M97.2355 250.229C97.3777 249.893 97.7675 249.734 98.0981 249.876C98.4342 250.019 98.5931 250.408 98.4509 250.739C91.1624 268.081 89.7032 291.758 88.2459 315.441L88.2403 315.526C88.22 315.89 87.9042 316.169 87.5403 316.147C87.1764 316.127 86.8975 315.815 86.9197 315.453L86.9252 315.364C88.3936 291.576 89.8565 267.782 97.2355 250.231V250.229Z" fill="#273451"/>
<path fill-rule="evenodd" clip-rule="evenodd" d="M21.1831 320.935C22.6829 320.414 24.2363 319.982 25.8192 319.619C36.5765 317.183 45.9965 312.414 55.5439 310.31C62.7863 308.711 77.548 312.294 85.7747 312.874C120.474 315.316 120.309 290.901 170.854 308.096C190.226 314.69 205.695 314.39 225.403 309.806C248.212 304.501 250.318 315.332 270.874 320.332C271.574 320.501 272.143 320.7 272.595 320.938H21.1831V320.935Z" fill="#273451"/>
<path fill-rule="evenodd" clip-rule="evenodd" d="M138.671 136.75C187.315 136.75 226.746 176.179 226.746 224.825C226.746 236.567 224.441 247.771 220.272 258.013L138.671 224.825V136.75Z" fill="#1267A0"/>
<path fill-rule="evenodd" clip-rule="evenodd" d="M219.114 257.543L138.671 224.824V166.969C140.66 166.812 142.67 166.732 144.696 166.732C186.609 166.732 220.586 200.709 220.586 242.619C220.586 247.73 220.076 252.719 219.112 257.545L219.114 257.543Z" fill="#2579BF"/>
<path fill-rule="evenodd" clip-rule="evenodd" d="M220.804 245.907C217.909 258.238 215.957 270.574 215.345 282.905C215.24 293.167 215.14 303.435 215.035 313.697H222.514L224.056 284.152L232.699 258.843C232.641 266.863 232.994 274.885 234.088 282.905L239.161 313.697H246.64L243.014 284.152C243.014 268.625 251.793 257.669 249.392 245.895C216.446 225.018 224.019 237.344 220.804 245.907Z" fill="#273451"/>
<path fill-rule="evenodd" clip-rule="evenodd" d="M176.423 234.381C175.113 234.739 173.128 235.107 172.003 235.761C171.192 236.23 170.64 236.614 172.577 236.509C173.377 236.466 172.782 236.961 172.267 237.257C171.399 237.783 171.172 237.615 170.073 237.593C170.405 239.656 173.425 240.834 175.088 240.413C176.292 240.049 177.225 238.987 178.292 238.271C177.672 236.97 177.051 235.676 176.423 234.381Z" fill="#FECFBB"/>
<path d="M229.111 180.586L219.828 182.529L222.377 194.709L231.66 192.766L229.111 180.586Z" fill="#FECFBB"/>
<path fill-rule="evenodd" clip-rule="evenodd" d="M211.373 172.853L225.32 170.469L227.704 184.421L220.732 185.611C216.895 186.263 213.216 183.664 212.564 179.828L211.374 172.855L211.373 172.853Z" fill="#FECFBB"/>
<path fill-rule="evenodd" clip-rule="evenodd" d="M226.772 167.608C225.235 167.181 225.445 168.219 223.482 167.224C222.039 166.376 220.235 166.367 218.63 166.686C215.252 167.648 215.189 168.507 211.277 168.507C209.583 168.513 206.877 168.675 207.693 171.154C208.135 172.501 211.378 175.679 212.813 176.132C213.571 176.374 214.134 176.348 214.54 176.738L214.825 177.174C215.198 178.195 214.841 178.415 215.878 178.784C217.804 180.19 215.067 180.159 216.962 182.842C219.21 186.032 222.836 184.268 225.887 183.369C230.66 181.963 230.691 180.195 230.144 175.628C229.834 173.123 229.114 168.997 226.772 167.608Z" fill="#273451"/>
<path fill-rule="evenodd" clip-rule="evenodd" d="M215.035 313.697L209.562 314.798L209.409 316.745L222.898 316.813L222.514 313.697C222.514 313.697 215.035 313.618 215.035 313.697Z" fill="#8DAFE0"/>
<path fill-rule="evenodd" clip-rule="evenodd" d="M239.16 313.697L233.687 314.798L233.534 316.745L247.254 316.819L246.639 313.697C246.639 313.697 239.16 313.618 239.16 313.697Z" fill="#8DAFE0"/>
<path fill-rule="evenodd" clip-rule="evenodd" d="M220.804 245.907C219.225 246.024 214.947 231.314 212.415 221.857C211.652 219.02 211.425 215.32 206.899 221.447C198.373 232.978 186.506 234.393 178.29 238.271L176.421 234.382C199.02 219.378 195.573 222.076 207.352 197.594C209.862 191.436 221.498 189.563 227.113 188.669C256.616 183.99 251.465 205.678 251.391 228.646C251.375 233.345 251.96 245.909 249.459 245.909C239.906 245.909 231.134 241.088 220.802 245.909L220.804 245.907Z" fill="#FCF5ED"/>
<path fill-rule="evenodd" clip-rule="evenodd" d="M218.894 242.85V242.839L218.353 241.465C216.452 236.391 214.064 228.013 212.416 221.855C211.833 219.681 211.559 216.997 209.422 218.628C210.942 216.385 212.459 214.149 213.981 211.906C216.628 219.573 217.259 232.532 218.896 242.846L218.894 242.85Z" fill="#D8D1D0"/>
<path d="M258.875 268.604L258.292 268.115L258.439 267.941L258.713 267.611L258.98 267.278L259.243 266.946L259.843 267.419L259.57 267.755L259.302 268.091L259.023 268.423L258.875 268.603V268.604ZM68.0278 153.758L68.3012 153.047L68.3326 153.058L68.0592 153.769L68.0278 153.758ZM70.1797 154.589L70.4586 153.884L70.5583 153.921L70.658 153.963L70.7578 154L70.8575 154.042L70.9573 154.079L71.057 154.122L71.1567 154.159L71.251 154.201L71.3507 154.238L71.4504 154.281L71.5446 154.318L71.6444 154.36L71.7386 154.397L71.8328 154.434L71.8697 154.451L71.5853 155.156L71.5483 155.14L71.4541 155.103L71.3599 155.06L71.2602 155.023L71.166 154.986L71.0662 154.944L70.972 154.907L70.8723 154.864L70.7781 154.827L70.6784 154.79L70.5786 154.748L70.4789 154.711L70.3791 154.669L70.2849 154.632L70.1852 154.589H70.1797ZM73.6854 156.026L73.9846 155.332L74.0049 155.343L74.0991 155.38L74.1878 155.422L74.2764 155.459L74.3706 155.502L74.4593 155.544L74.548 155.581L74.6366 155.624L74.7253 155.666L74.8139 155.703L74.9081 155.745L74.9968 155.788L75.0854 155.825L75.1741 155.867L75.2628 155.91L75.3477 155.952L75.368 155.958L75.0522 156.647L75.0319 156.641L74.9432 156.599L74.8583 156.556L74.7696 156.519L74.6809 156.477L74.5923 156.44L74.5036 156.397L74.415 156.355L74.33 156.318L74.2413 156.276L74.1527 156.239L74.0585 156.196L73.9698 156.159L73.8812 156.117L73.7925 156.08L73.7038 156.037L73.6835 156.026H73.6854ZM77.095 157.637L77.4478 156.957L77.5217 157L77.6067 157.042L77.6916 157.085L77.7766 157.133L77.8616 157.175L77.9465 157.223L78.0315 157.266L78.1165 157.314L78.1959 157.356L78.2809 157.404L78.3658 157.447L78.4508 157.495L78.5302 157.537L78.6152 157.585L78.7001 157.633L78.7796 157.681L78.8054 157.692L78.4323 158.355L78.412 158.339L78.327 158.296L78.2476 158.248L78.1682 158.206L78.0832 158.158L78.0038 158.115L77.9188 158.073L77.8394 158.025L77.7544 157.982L77.675 157.934L77.5901 157.892L77.5106 157.849L77.4257 157.807L77.3407 157.759L77.2613 157.716L77.1763 157.674L77.0969 157.637H77.095ZM80.3533 159.515L80.7689 158.878L80.7799 158.884L80.8594 158.935L80.9388 158.983L81.0182 159.035L81.0921 159.087L81.1715 159.138L81.2509 159.19L81.3304 159.242L81.4098 159.294L81.4837 159.345L81.5631 159.397L81.6425 159.449L81.7219 159.506L81.7958 159.558L81.8752 159.609L81.9547 159.667L82.0285 159.718L82.0452 159.73L81.6037 160.345L81.5871 160.339L81.5132 160.282L81.4393 160.23L81.3599 160.178L81.286 160.125L81.2121 160.073L81.1327 160.021L81.0588 159.97L80.9794 159.918L80.9055 159.866L80.8261 159.818L80.7522 159.766L80.6728 159.715L80.5989 159.667L80.5195 159.615L80.4456 159.563L80.3662 159.515L80.3551 159.51L80.3533 159.515ZM83.375 161.735L83.8645 161.152L83.9162 161.194L83.9901 161.257L84.064 161.32L84.1434 161.383L84.2173 161.445L84.2912 161.514L84.3651 161.577L84.439 161.639L84.5128 161.702L84.5867 161.771L84.6606 161.833L84.7345 161.902L84.8084 161.964L84.8822 162.033L84.9561 162.096L85.0245 162.158L84.5147 162.722L84.4463 162.659L84.378 162.596L84.3041 162.528L84.2302 162.465L84.1563 162.402L84.088 162.339L84.0141 162.277L83.9402 162.214L83.8664 162.151L83.798 162.088L83.7241 162.025L83.6503 161.963L83.5764 161.905L83.5025 161.843L83.4286 161.78L83.3769 161.737L83.375 161.735ZM86.1216 164.299L86.6683 163.773L86.7053 163.815L86.7792 163.889L86.8531 163.969L86.9269 164.042L87.0008 164.122L87.0692 164.201L87.143 164.281L87.2169 164.36L87.2853 164.44L87.3592 164.519L87.433 164.598L87.5069 164.678L87.5753 164.763L87.6491 164.842L87.7064 164.911L87.1375 165.411L87.0802 165.348L87.0119 165.269L86.938 165.189L86.8697 165.11L86.7958 165.031L86.7275 164.951L86.6536 164.872L86.5852 164.798L86.5113 164.718L86.443 164.645L86.3747 164.565L86.3008 164.491L86.2324 164.417L86.1586 164.343L86.1216 164.301V164.299ZM88.5838 167.142L89.184 166.669L89.2321 166.732L89.306 166.826L89.3798 166.915L89.4482 167.009L89.5221 167.097L89.607 167.208L89.6864 167.319L89.7714 167.43L89.8508 167.541L89.9303 167.657L90.0097 167.773L90.0891 167.89L90.1094 167.921L89.4722 168.331L89.4519 168.311L89.378 168.2L89.3041 168.089L89.2302 167.984L89.1563 167.873L89.0769 167.768L88.9975 167.668L88.9236 167.568L88.8497 167.474L88.7814 167.386L88.7075 167.297L88.6392 167.208L88.5874 167.145L88.5838 167.142ZM90.5472 170.278L91.2361 169.957L91.2878 170.068L91.3506 170.204L91.4134 170.341L91.4762 170.483L91.539 170.625L91.5963 170.768L91.6591 170.91L91.7164 171.058L91.7736 171.2L91.8309 171.348L91.842 171.379L91.1308 171.647L91.1198 171.626L91.068 171.484L91.0108 171.342L90.9535 171.2L90.8963 171.063L90.839 170.926L90.7817 170.79L90.719 170.653L90.6617 170.522L90.5989 170.391L90.5472 170.28V170.278ZM91.853 173.778L92.5845 173.568L92.6048 173.647L92.6528 173.806L92.6953 173.969L92.7378 174.126L92.7803 174.288L92.8227 174.451L92.8652 174.613L92.9077 174.776L92.9447 174.938L92.9705 175.055L92.2335 175.228L92.2077 175.112L92.1652 174.955L92.1283 174.798L92.0858 174.641L92.0488 174.484L92.0063 174.327L91.9639 174.17L91.9214 174.013L91.8734 173.86L91.853 173.78V173.778ZM92.6639 177.435L93.4157 177.319L93.436 177.456L93.4618 177.629L93.4877 177.797L93.508 177.971L93.5339 178.145L93.5542 178.313L93.5745 178.486L93.5948 178.66L93.6151 178.834V178.839L92.8634 178.924L92.8431 178.751L92.8227 178.582L92.8061 178.44H92.5845L92.4164 178.446L92.2483 178.451L92.0802 178.457L91.9177 178.462L91.7496 178.473L91.6129 178.485L91.5649 177.727L91.7016 177.716L91.8752 177.705L92.0488 177.7L92.228 177.688H92.4016L92.5752 177.683H92.6971L92.6805 177.578L92.6602 177.435H92.6639ZM93.0536 181.172L93.8165 181.135L93.822 181.272L93.8275 181.445L93.8386 181.619L93.8442 181.793L93.8497 181.966L93.8553 182.14V182.314L93.8608 182.493V182.672L93.1035 182.677V182.498L93.098 182.33L93.0924 182.162V181.988L93.0869 181.82L93.0758 181.647L93.0703 181.479L93.0647 181.311L93.0536 181.174V181.172ZM93.0425 184.929L93.7998 184.977L93.7943 185.077L93.7832 185.245L93.7666 185.413L93.7555 185.587L93.7389 185.755L93.7223 185.923L93.7056 186.091L93.689 186.253L93.6724 186.421L93.6613 186.506L92.9096 186.421L92.9151 186.342L92.9354 186.179L92.952 186.017L92.9687 185.854L92.9798 185.686L92.9964 185.524L93.0075 185.361L93.0241 185.193L93.0352 185.031L93.0407 184.931L93.0425 184.929ZM92.5734 188.645L93.3215 188.793L93.3048 188.867L93.2734 189.024L93.242 189.177L93.2051 189.334L93.1737 189.491L93.1367 189.645L93.0998 189.798L93.0629 189.951L93.0204 190.104L92.9834 190.258L92.9724 190.3L92.2354 190.101L92.2465 190.064L92.289 189.916L92.3259 189.768L92.3628 189.62L92.3942 189.473L92.4312 189.319L92.4626 189.172L92.4995 189.018L92.5309 188.865L92.5623 188.712L92.5734 188.643V188.645ZM91.5317 192.214L92.2372 192.504L92.2206 192.546L92.1633 192.677L92.1061 192.814L92.0488 192.945L91.9916 193.076L91.9343 193.202L91.8715 193.333L91.8087 193.459L91.7459 193.584L91.6831 193.706L91.6203 193.832L91.5723 193.917L90.9092 193.549L90.9461 193.475L91.0089 193.359L91.0662 193.237L91.129 193.121L91.1863 192.999L91.2435 192.877L91.3008 192.755L91.3525 192.629L91.4098 192.504L91.4615 192.378L91.5132 192.253L91.5298 192.21L91.5317 192.214ZM89.6624 195.356L90.2313 195.862L90.1796 195.919L90.091 196.013L90.006 196.107L89.9173 196.202L89.8287 196.29L89.7345 196.375L89.6458 196.464L89.5516 196.549L89.4574 196.634L89.3632 196.713L89.269 196.793L89.1748 196.872L89.0751 196.946L88.617 196.34L88.7057 196.272L88.7906 196.203L88.8793 196.135L88.9642 196.061L89.0492 195.982L89.1342 195.908L89.2191 195.828L89.2986 195.749L89.3835 195.664L89.4629 195.585L89.5424 195.496L89.6218 195.411L89.6735 195.354L89.6624 195.356ZM86.7108 197.293L86.9159 198.03L86.8586 198.047L86.7367 198.078L86.6148 198.104L86.4892 198.135L86.3636 198.156L86.238 198.182L86.1124 198.202L85.9868 198.219L85.8556 198.235L85.73 198.252L85.5989 198.263L85.4678 198.268L85.3311 198.274L85.3052 197.517L85.4271 197.511L85.5435 197.506L85.6599 197.495L85.7762 197.483L85.8926 197.467L86.009 197.45L86.1198 197.43L86.2306 197.413L86.3414 197.387L86.4522 197.367L86.5631 197.341L86.6683 197.31L86.7201 197.293H86.7108ZM83.1534 197.267L82.9631 197.999L82.9151 197.988L82.7674 197.945L82.6141 197.903L82.4608 197.86L82.3038 197.808L82.1504 197.76L81.9971 197.709L81.8494 197.651L81.7016 197.6L81.5539 197.543L81.4652 197.506L81.7607 196.806L81.8401 196.837L81.9768 196.889L82.1135 196.94L82.2502 196.992L82.3924 197.04L82.5346 197.088L82.6824 197.136L82.8246 197.179L82.9668 197.216L83.1091 197.253L83.1515 197.269L83.1534 197.267ZM79.8896 195.725L79.4113 196.314L79.3485 196.266L79.2487 196.181L79.149 196.096L79.0548 196.011L78.9606 195.923L78.8664 195.834L78.7777 195.745L78.6927 195.657L78.6041 195.568L78.5191 195.474L78.4397 195.38L78.3603 195.285L78.2809 195.191L78.2753 195.18L78.8812 194.722L78.9495 194.807L79.0178 194.892L79.0917 194.977L79.1656 195.056L79.2395 195.141L79.3189 195.221L79.3983 195.3L79.4833 195.38L79.5683 195.459L79.6532 195.533L79.7419 195.612L79.8305 195.686L79.8933 195.734L79.8896 195.725ZM77.9262 192.825L77.1892 193.025L77.1726 192.951L77.1412 192.834L77.1154 192.718L77.0895 192.602L77.0636 192.485L77.0433 192.369L77.0267 192.247L77.0064 192.131L76.9898 192.009L76.9787 191.892L76.9676 191.77L76.9565 191.649L76.9454 191.532V191.432L77.7027 191.401L77.7083 191.49L77.7138 191.595L77.7194 191.706L77.7304 191.811L77.7471 191.916L77.7581 192.022L77.7748 192.127L77.7951 192.232L77.8117 192.338L77.832 192.437L77.8523 192.543L77.8782 192.642L77.9041 192.742L77.9244 192.816L77.9262 192.825ZM77.9262 189.257L77.1892 189.072L77.2151 188.95L77.2465 188.828L77.2834 188.702L77.3148 188.577L77.3573 188.455L77.3943 188.329L77.4367 188.204L77.4792 188.082L77.5217 187.956L77.5642 187.831L77.6122 187.705L77.6639 187.583V187.572L78.3695 187.862L78.3215 187.978L78.279 188.095L78.2365 188.211L78.1941 188.328L78.1571 188.444L78.1202 188.566L78.0832 188.682L78.0463 188.799L78.0149 188.915L77.9835 189.031L77.9521 189.148L77.9262 189.264V189.257ZM79.3632 185.893L78.726 185.483L78.7943 185.372L78.8682 185.25L78.9476 185.134L79.0271 185.012L79.112 184.89L79.1915 184.774L79.2764 184.652L79.3651 184.536L79.45 184.419L79.5387 184.303L79.6126 184.203L80.2129 184.667L80.1445 184.761L80.0596 184.872L79.9746 184.983L79.8952 185.099L79.8158 185.21L79.7363 185.321L79.6569 185.437L79.583 185.548L79.5092 185.664L79.4353 185.775L79.3614 185.891L79.3632 185.893ZM81.6942 183.019L81.1678 182.472L81.2251 182.415L81.3359 182.31L81.4467 182.205L81.5631 182.099L81.6739 182L81.7903 181.894L81.9066 181.795L82.0285 181.695L82.1449 181.595L82.2668 181.495L82.3352 181.444L82.808 182.038L82.7452 182.086L82.6288 182.181L82.518 182.275L82.4072 182.374L82.2908 182.469L82.18 182.568L82.0747 182.663L81.9639 182.762L81.8586 182.862L81.7533 182.962L81.6961 183.019H81.6942ZM84.6255 180.751L84.2358 180.099L84.3244 180.047L84.4611 179.968L84.5978 179.883L84.74 179.803L84.8767 179.729L85.0189 179.65L85.1612 179.576L85.3089 179.497L85.4511 179.428L85.5934 179.355L85.9295 180.038L85.7928 180.106L85.6506 180.175L85.5139 180.243L85.3828 180.317L85.2461 180.391L85.1094 180.465L84.9783 180.544L84.8471 180.618L84.716 180.697L84.6273 180.749L84.6255 180.751ZM87.989 179.203L87.7581 178.477L87.88 178.44L88.037 178.389L88.194 178.34L88.3566 178.292L88.5136 178.25L88.6761 178.208L88.8386 178.165L89.0012 178.123L89.1637 178.086L89.2524 178.065L89.4149 178.808L89.33 178.828L89.1767 178.86L89.0197 178.902L88.8663 178.939L88.7094 178.981L88.556 179.024L88.4027 179.072L88.2494 179.114L88.1017 179.162L87.9798 179.205L87.989 179.203ZM95.3089 178.662L95.44 177.914L95.4604 177.919L95.6451 177.951L95.8298 177.988L96.0145 178.025L96.1992 178.067L96.3839 178.104L96.5741 178.152L96.7588 178.2L96.9435 178.248L96.9639 178.254L96.7588 178.985L96.7477 178.98L96.5686 178.937L96.3894 178.889L96.2158 178.847L96.0366 178.804L95.863 178.767L95.6838 178.736L95.5102 178.699L95.3366 178.667L95.3107 178.662H95.3089ZM98.8719 179.704L99.1563 178.998L99.2247 179.024L99.6255 179.192L100.026 179.36L100.416 179.534L100.573 179.608L100.252 180.297L100.098 180.228L99.7197 180.06L99.3299 179.892L98.9347 179.729L98.8719 179.704ZM102.261 181.314L102.629 180.646L102.634 180.651L102.982 180.845L103.329 181.045L103.665 181.25L103.955 181.429L103.55 182.072L103.272 181.898L102.939 181.704L102.607 181.505L102.265 181.314H102.259H102.261ZM105.403 183.346L105.861 182.74L105.887 182.761L106.186 182.991L106.476 183.222L106.761 183.453L107.04 183.69L107.065 183.71L106.559 184.279L106.543 184.268L106.275 184.037L105.996 183.81L105.717 183.582L105.427 183.361L105.401 183.34L105.403 183.346ZM108.187 185.83L108.739 185.309L108.864 185.441L109.106 185.699L109.343 185.961L109.574 186.229L109.768 186.456L109.184 186.94L108.999 186.724L108.772 186.466L108.545 186.213L108.308 185.96L108.183 185.828L108.187 185.83ZM110.54 188.725L111.171 188.304L111.271 188.446L111.465 188.736L111.65 189.031L111.835 189.321L112.003 189.6L111.351 189.99L111.188 189.722L111.009 189.438L110.83 189.153L110.639 188.874L110.54 188.727V188.725ZM112.413 191.961L113.096 191.634L113.153 191.756L113.301 192.072L113.449 192.387L113.591 192.703L113.728 193.025L113.733 193.041L113.028 193.331L113.022 193.32L112.891 193.01L112.754 192.7L112.612 192.389L112.47 192.084L112.413 191.963V191.961ZM113.824 195.435L114.544 195.199L114.587 195.324L114.697 195.66L114.803 195.997L114.902 196.338L114.997 196.665L114.271 196.87L114.177 196.554L114.077 196.222L113.972 195.889L113.866 195.557L113.824 195.431V195.435ZM114.823 199.061L115.566 198.898L115.617 199.125L115.697 199.484L115.771 199.837L115.839 200.2L115.876 200.4L115.133 200.537L115.091 200.343L115.023 199.99L114.949 199.637L114.875 199.29L114.823 199.063V199.061ZM115.503 202.766L116.255 202.661L116.271 202.749L116.319 203.122L116.371 203.49L116.419 203.863L116.456 204.173L115.699 204.262L115.662 203.957L115.619 203.59L115.567 203.222L115.519 202.858L115.503 202.764V202.766ZM115.929 206.519L116.687 206.456L116.692 206.519L116.724 206.903L116.75 207.288L116.781 207.672L116.798 207.977L116.04 208.028L116.024 207.724L115.992 207.345L115.966 206.961L115.935 206.582L115.929 206.519ZM116.166 210.298L116.923 210.267L116.929 210.404L116.945 210.799L116.962 211.194L116.973 211.595L116.984 211.789L116.221 211.809L116.216 211.615L116.205 211.226L116.188 210.83L116.171 210.435L116.166 210.298ZM116.271 214.083L117.028 214.072L117.034 214.388L117.04 214.792L117.045 215.193V215.594L116.288 215.599L116.282 215.204V214.8L116.277 214.399L116.271 214.083ZM116.291 217.877H117.049V218.446L117.043 218.856V219.397L116.28 219.391L116.286 219.255V218.438L116.291 218.034V217.877ZM116.266 221.671L117.023 221.676V222.14L117.017 222.55L117.012 222.965V223.196L116.249 223.191L116.255 222.954L116.26 222.544V222.134L116.266 221.719V221.671ZM116.234 225.47L116.992 225.476V225.86L116.986 226.27V226.99H116.229V226.27L116.234 225.854V225.47ZM116.229 229.275L116.986 229.269L116.992 229.585V230.001L116.997 230.411L117.003 230.784L116.245 230.795L116.24 230.422L116.234 230.006L116.229 229.591V229.275ZM116.286 233.08L117.043 233.06L117.054 233.307L117.065 233.717L117.076 234.127L117.093 234.537L117.099 234.574L116.336 234.606V234.569L116.319 234.153L116.308 233.737L116.291 233.327L116.286 233.08ZM116.443 236.89L117.2 236.842L117.206 236.996L117.232 237.406L117.257 237.81L117.289 238.22L117.294 238.351L116.537 238.409L116.526 238.272L116.5 237.862L116.474 237.452L116.448 237.042L116.443 236.889V236.89ZM116.733 240.69L117.49 240.616L117.496 240.647L117.533 241.052L117.581 241.453L117.623 241.853L117.655 242.116L116.903 242.21L116.871 241.942L116.823 241.538L116.781 241.133L116.738 240.723L116.733 240.692V240.69ZM117.206 244.48L117.958 244.364L118 244.637L118.063 245.032L118.126 245.422L118.194 245.817L118.199 245.854L117.451 245.991L117.446 245.948L117.378 245.548L117.309 245.152L117.246 244.751L117.204 244.478L117.206 244.48ZM117.906 248.242L118.643 248.074L118.659 248.143L118.748 248.527L118.837 248.911L118.925 249.29L118.988 249.543L118.257 249.733L118.188 249.474L118.094 249.085L118.006 248.695L117.917 248.305L117.906 248.242ZM118.874 251.942L119.6 251.715L119.662 251.925L119.779 252.299L119.901 252.666L120.026 253.034L120.063 253.145L119.347 253.403L119.304 253.281L119.178 252.903L119.057 252.529L118.935 252.151L118.872 251.94L118.874 251.942ZM120.163 255.557L120.863 255.261L120.989 255.572L121.142 255.924L121.299 256.283L121.456 256.635H121.461L120.772 256.962L120.767 256.951L120.604 256.593L120.447 256.229L120.29 255.865L120.165 255.555L120.163 255.557ZM121.805 259.02L122.468 258.656L122.499 258.713L122.69 259.055L122.88 259.391L123.079 259.727L123.216 259.958L122.564 260.354L122.422 260.117L122.222 259.77L122.028 259.423L121.838 259.075L121.807 259.018L121.805 259.02ZM123.82 262.287L124.441 261.852L124.572 262.036L124.799 262.363L125.035 262.679L125.277 263L125.325 263.063L124.731 263.532L124.673 263.459L124.431 263.137L124.189 262.81L123.953 262.478L123.822 262.287H123.82ZM126.199 265.304L126.768 264.798L126.82 264.855L127.093 265.16L127.372 265.459L127.656 265.754L127.788 265.891L127.25 266.429L127.108 266.286L126.818 265.982L126.533 265.671L126.249 265.361L126.197 265.304H126.199ZM128.914 268.019L129.42 267.45L129.472 267.498L129.777 267.766L129.993 267.914L130.229 268.071L130.466 268.224L130.591 268.309L130.187 268.952L130.056 268.867L129.814 268.71L129.572 268.547L129.33 268.385L129.293 268.359L128.966 268.069L128.914 268.021V268.019ZM132.182 270.113L132.535 269.439L132.56 269.456L132.791 269.578L133.022 269.694L133.249 269.805L133.48 269.916L133.707 270.027L133.881 270.101L133.565 270.795L133.392 270.716L133.155 270.605L132.919 270.488L132.682 270.372L132.446 270.25L132.209 270.125L132.184 270.113H132.182ZM135.724 271.645L135.961 270.924L136.182 270.998L136.404 271.067L136.626 271.135L136.847 271.198L137.069 271.26L137.285 271.318L137.396 271.349L137.211 272.086L137.089 272.055L136.862 271.992L136.635 271.929L136.408 271.861L136.177 271.792L135.95 271.719L135.723 271.645H135.724ZM139.481 272.535L139.581 271.783L139.638 271.794L139.849 271.82L140.059 271.84L140.264 271.861L140.475 271.881L140.68 271.898L140.885 271.914L141.064 271.925L141.027 272.683L140.837 272.672L140.621 272.655L140.41 272.638L140.189 272.618L139.973 272.598L139.757 272.572L139.535 272.546L139.478 272.535H139.481ZM143.355 272.651L143.286 271.9L143.486 271.879L143.68 271.863L143.87 271.842L144.064 271.816L144.254 271.796L144.444 271.77L144.635 271.739L144.766 271.719L144.897 272.467L144.755 272.487L144.561 272.518L144.361 272.55L144.162 272.576L143.962 272.596L143.763 272.616L143.558 272.637L143.358 272.653L143.355 272.651ZM147.16 271.914L146.929 271.188L146.997 271.168L147.171 271.111L147.344 271.054L147.518 270.996L147.691 270.934L147.86 270.871L148.028 270.802L148.196 270.734L148.321 270.682L148.617 271.382L148.486 271.44L148.307 271.508L148.133 271.582L147.954 271.645L147.775 271.713L147.59 271.776L147.411 271.833L147.226 271.896L147.158 271.916L147.16 271.914ZM150.702 270.33L150.307 269.683L150.423 269.615L150.571 269.526L150.719 269.432L150.867 269.338L151.014 269.243L151.157 269.149L151.304 269.05L151.447 268.95L151.557 268.87L152.004 269.485L151.882 269.57L151.735 269.676L151.581 269.775L151.434 269.875L151.28 269.975L151.123 270.075L150.97 270.174L150.813 270.269L150.702 270.331V270.33ZM153.792 267.993L153.266 267.446L153.286 267.43L153.408 267.308L153.524 267.191L153.646 267.07L153.763 266.953L153.879 266.831L153.99 266.709L154.106 266.584L154.217 266.462L154.297 266.368L154.871 266.868L154.786 266.968L154.67 267.094L154.548 267.219L154.431 267.35L154.309 267.476L154.188 267.601L154.062 267.723L153.94 267.849L153.809 267.971L153.792 267.988V267.993ZM156.271 265.005L155.628 264.6L155.676 264.526L155.761 264.389L155.846 264.253L155.931 264.122L156.011 263.985L156.09 263.848L156.164 263.712L156.238 263.569L156.312 263.433L156.369 263.316L157.049 263.658L156.986 263.784L156.912 263.926L156.833 264.074L156.748 264.216L156.668 264.364L156.583 264.506L156.498 264.648L156.41 264.79L156.321 264.932L156.273 265.006L156.271 265.005ZM157.93 261.49L157.204 261.268L157.23 261.183L157.272 261.041L157.315 260.898L157.352 260.756L157.389 260.614L157.42 260.472L157.451 260.33L157.483 260.187L157.514 260.045L157.54 259.903L157.551 259.84L158.299 259.962L158.288 260.041L158.257 260.195L158.225 260.343L158.194 260.496L158.162 260.649L158.126 260.802L158.083 260.95L158.046 261.104L158.004 261.257L157.956 261.41L157.93 261.495V261.49ZM158.451 257.611L157.693 257.659L157.688 257.533L157.677 257.396L157.666 257.26L157.649 257.123L157.632 256.986L157.616 256.855L157.595 256.719L157.575 256.587L157.549 256.456L157.523 256.325L157.503 256.214L158.24 256.046L158.266 256.168L158.297 256.316L158.323 256.458L158.343 256.606L158.369 256.754L158.386 256.896L158.406 257.044L158.417 257.191L158.434 257.345L158.445 257.493L158.451 257.618V257.611ZM157.414 253.817L156.746 254.181L156.74 254.175L156.677 254.053L156.609 253.937L156.535 253.821L156.461 253.699L156.387 253.588L156.308 253.471L156.229 253.355L156.144 253.244L156.059 253.133L155.974 253.023L155.937 252.98L156.52 252.491L156.563 252.542L156.657 252.664L156.751 252.786L156.84 252.912L156.929 253.037L157.014 253.163L157.099 253.289L157.178 253.414L157.257 253.54L157.331 253.671L157.405 253.802L157.411 253.808L157.414 253.817ZM154.799 250.875L154.358 251.49L154.241 251.41L154.116 251.321L153.984 251.233L153.848 251.144L153.711 251.056L153.569 250.971L153.427 250.886L153.279 250.806L153.137 250.727L153.116 250.716L153.464 250.041L153.495 250.058L153.648 250.138L153.805 250.226L153.959 250.315L154.106 250.409L154.26 250.498L154.402 250.592L154.544 250.686L154.686 250.786L154.803 250.871L154.799 250.875ZM151.278 249.164L151.085 249.896H151.079L150.948 249.859L150.817 249.833L150.691 249.801L150.565 249.775L150.44 249.755L150.314 249.735L150.192 249.718L150.07 249.702L149.945 249.685L149.823 249.674L149.707 249.668H149.67L149.696 248.906L149.747 248.911L149.878 248.917L150.015 248.933L150.152 248.944L150.288 248.965L150.425 248.981L150.567 249.007L150.704 249.033L150.846 249.059L150.988 249.09L151.131 249.122L151.273 249.159L151.278 249.164ZM147.305 249.253L147.573 249.964L147.499 249.99L147.4 250.032L147.3 250.069L147.2 250.117L147.1 250.16L147.006 250.208L146.912 250.259L146.818 250.307L146.724 250.359L146.629 250.416L146.535 250.474L146.447 250.531L146.358 250.594L146.327 250.614L145.88 249.999L145.928 249.968L146.027 249.894L146.133 249.831L146.238 249.763L146.343 249.7L146.454 249.643L146.565 249.585L146.67 249.528L146.786 249.476L146.897 249.423L147.008 249.375L147.124 249.327L147.241 249.279L147.315 249.253H147.305ZM144.18 251.684L144.795 252.125L144.738 252.21L144.664 252.31L144.596 252.409L144.527 252.515L144.459 252.62L144.396 252.725L144.328 252.836L144.265 252.941L144.202 253.058L144.14 253.169L144.082 253.285L144.034 253.374L143.355 253.026L143.406 252.932L143.469 252.807L143.537 252.685L143.606 252.563L143.674 252.446L143.748 252.33L143.816 252.214L143.89 252.097L143.964 251.986L144.044 251.876L144.117 251.765L144.18 251.68V251.684ZM142.501 255.215L143.227 255.426L143.222 255.457L143.179 255.594L143.142 255.736L143.1 255.878L143.068 256.026L143.031 256.168L143 256.316L142.963 256.464L142.937 256.611L142.906 256.765L142.885 256.87L142.137 256.728L142.158 256.617L142.189 256.46L142.22 256.307L142.257 256.15L142.289 255.996L142.326 255.843L142.368 255.69L142.405 255.542L142.448 255.389L142.49 255.241L142.501 255.215ZM141.858 259.037L142.616 259.079V259.131L142.605 259.299L142.599 259.461L142.594 259.63L142.588 259.798L142.583 259.966V260.566L141.825 260.583V259.956L141.831 259.783V259.609L141.842 259.436L141.847 259.262L141.858 259.088V259.037ZM141.984 262.899L142.736 262.805L142.752 262.947L142.773 263.132L142.799 263.311L142.824 263.49L142.85 263.675L142.882 263.859L142.913 264.038L142.945 264.223L142.956 264.286L142.208 264.428L142.196 264.36L142.16 264.17L142.128 263.979L142.102 263.789L142.071 263.604L142.045 263.414L142.019 263.224L141.999 263.039L141.982 262.897L141.984 262.899ZM142.727 266.678L143.458 266.473L143.5 266.63L143.558 266.815L143.609 267.005L143.667 267.19L143.724 267.38L143.787 267.57L143.844 267.755L143.896 267.908L143.175 268.156L143.124 267.999L143.061 267.805L143.004 267.614L142.941 267.42L142.884 267.227L142.826 267.036L142.775 266.842L142.727 266.685V266.678ZM144.021 270.304L144.716 269.993L144.721 269.999L144.801 270.189L144.886 270.374L144.974 270.564L145.063 270.749L145.152 270.934L145.24 271.124L145.335 271.309L145.355 271.351L144.681 271.698L144.655 271.65L144.561 271.46L144.467 271.27L144.378 271.076L144.284 270.886L144.195 270.695L144.11 270.501L144.021 270.311V270.306V270.304ZM145.82 273.704L146.463 273.303L146.48 273.324L146.596 273.503L146.713 273.688L146.829 273.867L146.951 274.046L147.073 274.225L147.195 274.404L147.3 274.552L146.679 274.988L146.574 274.84L146.448 274.655L146.323 274.471L146.201 274.286L146.079 274.096L145.957 273.911L145.835 273.721L145.824 273.7L145.82 273.704ZM148.078 276.82L148.661 276.331V276.336L148.809 276.51L148.957 276.678L149.104 276.846L149.258 277.014L149.411 277.182L149.564 277.35L149.659 277.45L149.106 277.971L149.007 277.871L148.85 277.697L148.693 277.524L148.539 277.35L148.386 277.177L148.233 276.997L148.085 276.824L148.079 276.818L148.078 276.82ZM150.756 279.594L151.262 279.026L151.387 279.142L151.561 279.295L151.74 279.452L151.925 279.605L152.11 279.763L152.294 279.916L152.4 280.001L151.927 280.596L151.816 280.501L151.622 280.348L151.437 280.191L151.247 280.028L151.062 279.871L150.883 279.709L150.758 279.598L150.756 279.594ZM153.778 281.973L154.204 281.342L154.398 281.478L154.745 281.715L155.098 281.946L155.457 282.182L155.046 282.825L155.041 282.819L154.683 282.583L154.324 282.347L153.966 282.105L153.776 281.973H153.778ZM156.993 284.037L157.383 283.379L157.625 283.527L157.993 283.743L158.366 283.959L158.687 284.138L158.314 284.801L157.987 284.617L157.614 284.4L157.241 284.184L156.993 284.037ZM160.34 285.889L160.682 285.209L161.014 285.378L161.398 285.571L161.788 285.762L162.036 285.884L161.703 286.567L161.45 286.445L161.06 286.251L160.671 286.057L160.338 285.889H160.34ZM163.781 287.531L164.092 286.837L164.143 286.863L164.544 287.036L164.945 287.21L165.346 287.378L165.477 287.43L165.192 288.135L165.056 288.078L164.646 287.904L164.241 287.731L163.84 287.557L163.783 287.531H163.781ZM167.318 288.979L167.586 288.268L167.791 288.342L168.201 288.495L168.617 288.649L169.007 288.785L168.753 289.502L168.358 289.365L167.943 289.212L167.522 289.059L167.316 288.979H167.318ZM170.929 290.232L171.157 289.506L171.557 289.631L171.984 289.762L172.411 289.888L172.605 289.945L172.389 290.677L172.189 290.614L171.757 290.488L171.33 290.357L170.929 290.232ZM174.598 291.296L174.788 290.559L174.987 290.61L175.423 290.721L175.855 290.832L176.256 290.932L176.077 291.669L175.673 291.569L175.237 291.458L174.801 291.347L174.601 291.296H174.598ZM178.308 292.18L178.465 291.438L178.491 291.443L178.933 291.532L179.374 291.626L179.821 291.711L179.943 291.737L179.801 292.485L179.675 292.459L179.228 292.371L178.781 292.282L178.334 292.188L178.308 292.182V292.18ZM182.056 292.891L182.182 292.14L182.509 292.197L182.956 292.265L183.408 292.334L183.676 292.376L183.565 293.128L183.292 293.085L182.839 293.017L182.387 292.943L182.054 292.891H182.056ZM185.835 293.433L185.924 292.675L186.129 292.701L186.587 292.753L187.045 292.805L187.429 292.847L187.35 293.599L186.96 293.556L186.502 293.508L186.038 293.451L185.833 293.431L185.835 293.433ZM189.629 293.811L189.686 293.054L189.791 293.059L190.255 293.096L190.713 293.128L191.177 293.154L191.197 293.159L191.155 293.917L191.129 293.911L190.665 293.885L190.202 293.854L189.732 293.817L189.627 293.811H189.629ZM193.439 294.027L193.465 293.27H193.491L193.955 293.287L194.418 293.303L194.882 293.314H194.976L194.965 294.072H194.865L194.396 294.061L193.927 294.044L193.458 294.027H193.438H193.439ZM197.255 294.09L197.244 293.333L197.671 293.327L198.14 293.322L198.604 293.316L198.763 293.311L198.779 294.074H198.622L198.149 294.085L197.68 294.09H197.259H197.255ZM201.066 294.001L201.029 293.244L201.402 293.224L201.866 293.204L202.335 293.178L202.54 293.167L202.588 293.924L202.377 293.935L201.908 293.961L201.435 293.987L201.068 294.003L201.066 294.001ZM204.871 293.76L204.808 293.002L205.129 292.976L205.593 292.934L206.062 292.891L206.315 292.866L206.395 293.623L206.136 293.643L205.667 293.691L205.194 293.734L204.873 293.76H204.871ZM208.665 293.37L208.571 292.612L208.849 292.581L209.313 292.524L209.777 292.461L210.072 292.419L210.177 293.17L209.878 293.213L209.409 293.276L208.945 293.333L208.667 293.37H208.665ZM212.438 292.829L212.316 292.077L212.544 292.04L213.007 291.966L213.465 291.881L213.807 291.824L213.944 292.572L213.596 292.635L213.133 292.714L212.669 292.793L212.438 292.83V292.829ZM216.191 292.14L216.038 291.397L216.217 291.36L216.67 291.26L217.128 291.166L217.518 291.081L217.68 291.824L217.285 291.909L216.827 292.008L216.369 292.103L216.19 292.14H216.191ZM219.913 291.297L219.729 290.56L219.845 290.535L220.297 290.418L220.744 290.302L221.197 290.185H221.191L221.391 290.922L220.938 291.039L220.48 291.155L220.028 291.272L219.911 291.297H219.913ZM223.598 290.307L223.382 289.581L223.43 289.565L223.872 289.434L224.313 289.303L224.754 289.166L224.828 289.146L225.059 289.871L224.98 289.892L224.533 290.028L224.086 290.165L223.639 290.296L223.596 290.307H223.598ZM227.241 289.166L226.993 288.446L227.388 288.314L227.821 288.161L228.256 288.008L228.419 287.951L228.678 288.662L228.51 288.724L228.074 288.878L227.636 289.031L227.241 289.168V289.166ZM230.824 287.866L230.545 287.154L230.829 287.044L231.256 286.876L231.677 286.707L231.951 286.597L232.241 287.297L231.962 287.413L231.535 287.587L231.108 287.755L230.824 287.866ZM234.35 286.403L234.04 285.708L234.193 285.645L234.609 285.461L235.019 285.27L235.419 285.086L235.741 285.775L235.336 285.959L234.921 286.15L234.505 286.34L234.352 286.403H234.35ZM237.802 284.781L237.466 284.101L237.87 283.902L238.271 283.697L238.672 283.492L238.809 283.418L239.167 284.086L239.019 284.166L238.618 284.371L238.214 284.581L237.809 284.781H237.804H237.802ZM241.175 282.997L240.802 282.334L241.029 282.208L241.419 281.986L241.803 281.759L242.113 281.58L242.503 282.232L242.187 282.417L241.797 282.644L241.402 282.871L241.175 282.997ZM244.453 281.039L244.049 280.396L244.08 280.376L244.453 280.139L244.821 279.903L245.188 279.655L245.314 279.576L245.735 280.208L245.61 280.293L245.236 280.535L244.863 280.782L244.485 281.018L244.453 281.039ZM247.627 278.907L247.18 278.292L247.364 278.161L247.723 277.903L248.075 277.644L248.402 277.396L248.86 278.008L248.528 278.255L248.17 278.518L247.806 278.776L247.627 278.907ZM250.669 276.597L250.19 276.013L250.486 275.771L250.822 275.498L251.154 275.219L251.359 275.051L251.849 275.629L251.644 275.802L251.308 276.081L250.966 276.36L250.671 276.597H250.669ZM253.574 274.112L253.059 273.555L253.107 273.512L253.428 273.217L253.744 272.921L254.054 272.625L254.165 272.52L254.692 273.067L254.581 273.172L254.265 273.471L253.944 273.771L253.622 274.066L253.574 274.109V274.112ZM256.317 271.449L255.765 270.922L255.881 270.806L256.177 270.496L256.467 270.185L256.757 269.87L256.799 269.822L257.368 270.331L257.32 270.383L257.024 270.699L256.729 271.015L256.43 271.331L256.319 271.447L256.317 271.449Z" fill="#273451"/>
</svg>
