<svg width="24" height="24" viewBox="0 0 24 24" fill="none" xmlns="http://www.w3.org/2000/svg">
<path d="M10 11.2969V20.0009C10 20.5529 10 21.0009 11 21.0009H13C14 21.0009 14 20.5529 14 20.0009V13.2389C12.4633 13.1422 11.0264 12.4446 10 11.2969Z" fill="#008B94"/>
<path fill-rule="evenodd" clip-rule="evenodd" d="M10.3981 9.20135C10.6573 9.76496 11.0333 10.267 11.5013 10.6743C11.9692 11.0816 12.5184 11.3848 13.1124 11.5638C13.7064 11.7428 14.3316 11.7935 14.9467 11.7126C15.5617 11.6316 16.1526 11.4209 16.6801 11.0943L19.2931 13.7073L20.7071 12.2933L18.0941 9.68035C18.4923 9.0373 18.717 8.30199 18.7462 7.54619C18.7755 6.79038 18.6083 6.0399 18.261 5.36799C17.9137 4.69608 17.3981 4.12569 16.7646 3.71249C16.131 3.29929 15.4012 3.05739 14.6463 3.0104C13.8914 2.96342 13.1372 3.11295 12.4573 3.4444C11.7774 3.77586 11.1951 4.27792 10.7671 4.90157C10.3392 5.52523 10.0802 6.24919 10.0155 7.00279C9.95085 7.75638 10.0826 8.51388 10.3981 9.20135ZM14.3751 9.75035C14.2331 9.75035 14.0941 9.73835 13.9581 9.71435C13.4541 9.6246 12.9928 9.37411 12.6431 9.00035C12.2693 8.602 12.0443 8.087 12.006 7.54212C11.9676 6.99725 12.1182 6.45581 12.4325 6.00903C12.7467 5.56225 13.2054 5.23744 13.7311 5.08933C14.2569 4.94122 14.8176 4.97886 15.3189 5.19591C15.8201 5.41296 16.2312 5.79616 16.4829 6.28093C16.7346 6.7657 16.8115 7.32242 16.7007 7.85727C16.5899 8.39213 16.298 8.87244 15.8744 9.21727C15.4508 9.56209 14.9213 9.75036 14.3751 9.75035Z" fill="#008B94"/>
<path d="M4 4C4 3.448 4 3 5 3H7C8 3 8 3.448 8 4V20C8 20.552 8 21 7 21H5C4 21 4 20.552 4 20V4ZM17 15C16 15 16 15.448 16 16V20C16 20.552 16 21 17 21H19C19.552 21 20 21 20 20V16C20 15.448 20 15 19 15H17Z" fill="#008B94"/>
</svg>
